<svg width="25" height="24" viewBox="0 0 25 24" fill="none" xmlns="http://www.w3.org/2000/svg">
<path d="M16.975 6.40783L19.092 8.52483M18.336 4.54283L12.609 10.2698C12.3131 10.5653 12.1113 10.9418 12.029 11.3518L11.5 13.9998L14.148 13.4698C14.558 13.3878 14.934 13.1868 15.23 12.8908L20.957 7.16383C21.1291 6.99173 21.2656 6.78742 21.3588 6.56256C21.4519 6.33771 21.4998 6.09671 21.4998 5.85333C21.4998 5.60994 21.4519 5.36895 21.3588 5.14409C21.2656 4.91923 21.1291 4.71492 20.957 4.54283C20.7849 4.37073 20.5806 4.23421 20.3557 4.14108C20.1309 4.04794 19.8899 4 19.6465 4C19.4031 4 19.1621 4.04794 18.9373 4.14108C18.7124 4.23421 18.5081 4.37073 18.336 4.54283Z" stroke="#D1D1D1" stroke-width="2" stroke-linecap="round" stroke-linejoin="round"/>
<path d="M19.5 15.9998V18.9998C19.5 19.5302 19.2893 20.0389 18.9142 20.414C18.5391 20.789 18.0304 20.9998 17.5 20.9998H6.5C5.96957 20.9998 5.46086 20.789 5.08579 20.414C4.71071 20.0389 4.5 19.5302 4.5 18.9998V7.99976C4.5 7.46932 4.71071 6.96061 5.08579 6.58554C5.46086 6.21047 5.96957 5.99976 6.5 5.99976H9.5" stroke="#D1D1D1" stroke-width="2" stroke-linecap="round" stroke-linejoin="round"/>
</svg>
