<svg width="12" height="14" viewBox="0 0 12 14" fill="none" xmlns="http://www.w3.org/2000/svg">
<path d="M0 13.8389V10.6095L8.8 0.598063C8.93333 0.458752 9.08066 0.351102 9.242 0.275115C9.40333 0.199127 9.57266 0.161133 9.75 0.161133C9.92777 0.161133 10.1 0.199127 10.2667 0.275115C10.4333 0.351102 10.5778 0.465084 10.7 0.61706L11.6167 1.68089C11.75 1.8202 11.8473 1.98484 11.9087 2.17481C11.97 2.36478 12.0004 2.55475 12 2.74472C12 2.94735 11.9696 3.14062 11.9087 3.32451C11.8478 3.5084 11.7504 3.67608 11.6167 3.82755L2.83333 13.8389H0ZM9.73333 3.80855L10.6667 2.74472L9.73333 1.68089L8.8 2.74472L9.73333 3.80855Z" fill="#4CAF50"/>
</svg>
